<?xml version="1.0" encoding="UTF-8"?>
<svg id="Layer_1" data-name="Layer 1" xmlns="http://www.w3.org/2000/svg" version="1.1" xmlns:xlink="http://www.w3.org/1999/xlink" viewBox="0 0 650 406">
  <defs>
    <style>
      .cls-1 {
        fill: url(#linear-gradient);
      }

      .cls-1, .cls-2, .cls-3, .cls-4 {
        stroke-width: 0px;
      }

      .cls-2 {
        fill: url(#linear-gradient-2);
      }

      .cls-3 {
        fill: url(#linear-gradient-3);
      }

      .cls-4 {
        fill: url(#linear-gradient-4);
      }
    </style>
    <linearGradient id="linear-gradient" x1="106.4" y1="351.4" x2="106.4" y2="549.4" gradientTransform="translate(0 -278)" gradientUnits="userSpaceOnUse">
      <stop offset="0" stop-color="#01e4be"/>
      <stop offset="1" stop-color="#017edd"/>
    </linearGradient>
    <linearGradient id="linear-gradient-2" x1="539.9" y1="351.4" x2="539.9" y2="549.4" gradientTransform="translate(0 -278)" gradientUnits="userSpaceOnUse">
      <stop offset="0" stop-color="#01e4be"/>
      <stop offset="1" stop-color="#017edd"/>
    </linearGradient>
    <linearGradient id="linear-gradient-3" x1="325" y1="351.4" x2="325" y2="549.4" gradientTransform="translate(0 -278)" gradientUnits="userSpaceOnUse">
      <stop offset="0" stop-color="#01e4be"/>
      <stop offset="1" stop-color="#017edd"/>
    </linearGradient>
    <linearGradient id="linear-gradient-4" x1="325" y1="351.4" x2="325" y2="549.4" gradientTransform="translate(0 -278)" gradientUnits="userSpaceOnUse">
      <stop offset="0" stop-color="#01e4be"/>
      <stop offset="1" stop-color="#017edd"/>
    </linearGradient>
  </defs>
  <path class="cls-1" d="M151.1,162.8h-21.8l-16.3-34.7h-31v34.7h-20.2v-98.3h66.5c13.3,0,19.7,6.3,19.7,19.7v23.7c0,11.1-4.4,17.4-13.6,19.1l16.7,35.8h0ZM125,110.2c2.1,0,2.8-.7,2.8-2.8v-21.8c0-2.1-.7-2.8-2.8-2.8h-43v27.4h43Z"/>
  <path class="cls-2" d="M491.6,64.5h22.2l26.1,57.8,26.1-57.8h22.2v98.3h-19.9v-62.6l-21.2,49.5h-14.9l-21.2-49.5v62.6h-19.4v-98.3h0Z"/>
  <g>
    <path class="cls-3" d="M588.2,181.8h-104.6c-10.4-78.2-77.6-138.7-158.6-138.7s-148.1,60.5-158.6,138.7H61.8v42.5h104.6c10.4,78.2,77.6,138.7,158.6,138.7s148.1-60.5,158.6-138.7h104.6v-42.5h0ZM325,320.5c-64.8,0-117.5-52.7-117.5-117.5s52.7-117.5,117.5-117.5,117.5,52.7,117.5,117.5-52.7,117.5-117.5,117.5Z"/>
    <path class="cls-4" d="M324.9,191.9c-14.5-5.2-56.4-17.6-102.1-8.8l6.5,33.5-5,1.2,1.8,7.7c28.3-9.1,68.2.2,82.3,4v7.5h33.2v-7.5c14.1-3.8,54-13,82.3-4l1.8-7.7-5-1.2,6.5-33.5c-45.6-8.8-87.6,3.6-102.1,8.8h-.2,0Z"/>
  </g>
</svg>